<svg xmlns="http://www.w3.org/2000/svg" xmlns:xlink="http://www.w3.org/1999/xlink" version="1.1" id="Layer_1" x="0" y="0" width="144.5" height="149.3" viewBox="27.75 25.3 144.5 149.3" enable-background="new 27.75 25.302 144.5 149.296" xml:space="preserve">
  <path d="M108.73 25.3c38.74 0 63.52 26.53 63.52 63.88 0 32.47-22.33 48.52-41.54 48.52 -10.29 0-18.84-4.88-20.94-13.27h-0.34c-4.54 6.99-13.97 11.53-20.95 11.53 -14.31 0-23.73-10.83-23.73-26.89 0-22.33 16.05-43.62 35.95-43.62 5.58 0 10.12 2.44 12.92 8.72h0.34l2.79-7.32h18.16l-8.38 39.79c-2.09 8.72 0.35 12.92 7.33 12.92 10.48 0 19.9-11.86 19.9-29.68 0-23.73-12.22-46.77-47.47-46.77 -29.32 0-58.65 25.14-58.65 63.89 0 34.55 24.44 49.91 50.62 49.91 8.38 0 18.84-2.79 25.82-6.28l6.29 16.05c-10.82 5.58-21.99 8.03-34.55 8.03 -35.26 0-68.06-20.95-68.06-67.01C27.75 58.12 64.4 25.3 108.73 25.3zM95.12 117.45c3.14 0 5.93-1.74 9.77-6.97l3.84-22c-1.23-2.44-3.84-4.19-6.99-4.19 -9.07 0-14.66 13.63-14.66 23.04C87.08 113.79 89.88 117.45 95.12 117.45z"/>
</svg>
