<svg xmlns:dc="http://purl.org/dc/elements/1.1/" xmlns:cc="http://creativecommons.org/ns#" xmlns:rdf="http://www.w3.org/1999/02/22-rdf-syntax-ns#" xmlns:svg="http://www.w3.org/2000/svg" xmlns="http://www.w3.org/2000/svg" xmlns:sodipodi="http://sodipodi.sourceforge.net/DTD/sodipodi-0.dtd" xmlns:inkscape="http://www.inkscape.org/namespaces/inkscape" version="1.1" x="0" y="0" viewBox="0 0 100 100">
  <g transform="translate(0,-952.36218)">
    <path d="m36 980.36c-2.72 0-5 2.28-5 5l0 34c0 2.72 2.28 5 5 5l56 0c2.72 0 5-2.28 5-5l0-34c0-2.72-2.28-5-5-5l-56 0zm6.13 6 43.75 0L64 1005.36 42.13 986.36zm-36.12 1c-1.66 0-3 1.34-3 3 0 1.66 1.34 3 3 3l20 0c1.66 0 3-1.34 3-3 0-1.66-1.34-3-3-3l-20 0zm31 2.5 13.91 12.06L37 1014.58 37 989.86zm54 0 0 24.72L77.09 1001.92 91 989.86zm-81 9.5c-1.66 0-3 1.34-3 3 0 1.66 1.34 3 3 3l16 0c1.66 0 3-1.34 3-3 0-1.66-1.34-3-3-3l-16 0zm45.47 6.56 6.56 5.69a3 3 0 0 0 3.94 0l6.56-5.69 13.69 12.44-44.44 0 13.69-12.44zM14 1011.36c-1.66 0-3 1.34-3 3 0 1.66 1.34 3 3 3l12 0c1.66 0 3-1.34 3-3 0-1.66-1.34-3-3-3l-12 0z" fill="#9F9894" fill-opacity="1" stroke="none" marker="none" visibility="visible" display="inline" overflow="visible" style="baseline-shift:baseline;block-progression:tb;color:#9F9894;direction:ltr;enable-background:accumulate;text-indent:0;text-transform:none"/>
  </g>
</svg>
