<svg xmlns="http://www.w3.org/2000/svg" xmlns:xlink="http://www.w3.org/1999/xlink" version="1.1" id="Layer_1" x="0" y="0" width="175.36" height="30.57" viewBox="0 0 175.36 30.57" enable-background="new 0 0 175.357 30.574" xml:space="preserve">
  <path fill="#4C4947" d="M5.02 21.39H4.96v1.82H0.12V0h4.84v9.89h0.06c1.19-1.83 2.89-2.74 5.1-2.74 2.02 0 3.58 0.7 4.67 2.08 1.09 1.4 1.64 3.29 1.64 5.7 0 2.61-0.64 4.71-1.91 6.29 -1.28 1.58-2.98 2.37-5.11 2.37C7.47 23.59 6.01 22.86 5.02 21.39zM4.88 14.77v1.61c0 1.01 0.29 1.85 0.87 2.51 0.58 0.67 1.33 1 2.24 1 1.1 0 1.96-0.43 2.56-1.28 0.61-0.85 0.91-2.06 0.91-3.62 0-1.29-0.28-2.31-0.83-3.04 -0.56-0.73-1.35-1.1-2.38-1.1 -0.97 0-1.78 0.36-2.41 1.09C5.2 12.67 4.88 13.61 4.88 14.77z"/>
  <path fill="#4C4947" d="M29.79 11.9c-0.58-0.32-1.26-0.47-2.04-0.47 -1.05 0-1.87 0.38-2.46 1.15 -0.59 0.77-0.88 1.82-0.88 3.15v7.49h-4.84V7.54h4.84v2.91h0.06c0.77-2.12 2.14-3.19 4.14-3.19 0.51 0 0.91 0.06 1.2 0.19V11.9z"/>
  <path fill="#4C4947" d="M34.49 5.05c-0.81 0-1.48-0.25-2-0.73 -0.52-0.48-0.78-1.08-0.78-1.78 0-0.73 0.26-1.32 0.78-1.77 0.52-0.46 1.19-0.69 2-0.69 0.83 0 1.5 0.23 2.02 0.69 0.52 0.46 0.77 1.05 0.77 1.77 0 0.73-0.25 1.34-0.77 1.81C35.99 4.82 35.32 5.05 34.49 5.05zM36.88 23.21h-4.84V7.54h4.84V23.21z"/>
  <path fill="#4C4947" d="M52.83 22.64c-1.09 0.63-2.67 0.95-4.73 0.95 -2.41 0-4.36-0.73-5.85-2.19 -1.49-1.46-2.23-3.34-2.23-5.65 0-2.66 0.8-4.76 2.4-6.3 1.6-1.54 3.73-2.31 6.41-2.31 1.85 0 3.19 0.25 4.01 0.74v4.1c-1.01-0.75-2.14-1.13-3.38-1.13 -1.38 0-2.49 0.41-3.3 1.22 -0.81 0.81-1.22 1.93-1.22 3.36 0 1.39 0.39 2.48 1.16 3.27 0.78 0.79 1.84 1.19 3.2 1.19 1.2 0 2.38-0.38 3.54-1.13V22.64z"/>
  <path fill="#4C4947" d="M71.71 23.21h-5.81l-5-7.78h-0.06v7.78h-4.84V0h4.84v14.77h0.06l4.67-7.24h5.74l-5.62 7.36L71.71 23.21z"/>
  <path fill="#4C4947" d="M84.63 5.05c-0.81 0-1.48-0.25-2-0.73 -0.52-0.48-0.78-1.08-0.78-1.78 0-0.73 0.26-1.32 0.78-1.77 0.52-0.46 1.19-0.69 2.01-0.69 0.83 0 1.5 0.23 2.02 0.69 0.52 0.46 0.77 1.05 0.77 1.77 0 0.73-0.26 1.34-0.77 1.81C86.13 4.82 85.46 5.05 84.63 5.05zM87.02 23.21h-4.83V7.54h4.83V23.21z"/>
  <path fill="#4C4947" d="M115.99 23.21h-4.82v-8.94c0-2.28-0.84-3.42-2.51-3.42 -0.79 0-1.44 0.34-1.94 1.03 -0.5 0.68-0.75 1.54-0.75 2.56v8.77h-4.84v-9.03c0-2.21-0.82-3.32-2.47-3.32 -0.83 0-1.49 0.33-1.98 0.98 -0.5 0.65-0.74 1.54-0.74 2.66v8.71h-4.84V7.54h4.84v2.45h0.06c0.5-0.84 1.2-1.52 2.1-2.05 0.9-0.53 1.89-0.79 2.96-0.79 2.22 0 3.73 0.98 4.55 2.92 1.2-1.95 2.95-2.92 5.27-2.92 3.41 0 5.12 2.1 5.12 6.31V23.21z"/>
  <path fill="#4C4947" d="M132.86 23.21h-4.58v-2.25h-0.05c-1.06 1.76-2.61 2.63-4.67 2.63 -1.52 0-2.72-0.43-3.59-1.29 -0.88-0.86-1.31-2.01-1.31-3.45 0-3.04 1.8-4.8 5.41-5.27l4.25-0.57c0-1.71-0.93-2.57-2.78-2.57 -1.87 0-3.64 0.56-5.33 1.67V8.47c0.67-0.34 1.59-0.65 2.76-0.92 1.17-0.26 2.23-0.4 3.19-0.4 4.47 0 6.71 2.23 6.71 6.69V23.21zM128.31 16.84v-1.06l-2.85 0.37c-1.57 0.2-2.36 0.91-2.36 2.13 0 0.55 0.19 1 0.57 1.36 0.39 0.35 0.9 0.53 1.56 0.53 0.91 0 1.65-0.31 2.22-0.94C128.03 18.59 128.31 17.8 128.31 16.84z"/>
  <path fill="#4C4947" d="M152.06 21.42c0 2.91-0.84 5.16-2.53 6.76 -1.68 1.6-4.12 2.4-7.32 2.4 -2.11 0-3.79-0.3-5.02-0.9V25.6c1.61 0.94 3.24 1.41 4.89 1.41 1.63 0 2.9-0.43 3.8-1.29 0.9-0.86 1.35-2.03 1.35-3.51V20.96h-0.06c-1.1 1.76-2.73 2.63-4.89 2.63 -2 0-3.59-0.7-4.76-2.11 -1.18-1.41-1.76-3.29-1.76-5.66 0-2.65 0.65-4.76 1.96-6.32 1.31-1.56 3.03-2.35 5.16-2.35 1.91 0 3.34 0.74 4.29 2.21h0.06V7.54h4.84V21.42zM147.28 15.68v-1.24c0-0.99-0.29-1.83-0.88-2.53 -0.59-0.7-1.35-1.05-2.29-1.05 -1.07 0-1.91 0.42-2.52 1.26 -0.61 0.84-0.92 2.02-0.92 3.54 0 1.31 0.29 2.34 0.87 3.1 0.59 0.76 1.38 1.14 2.39 1.14 1 0 1.81-0.38 2.43-1.15C146.98 17.96 147.28 16.94 147.28 15.68z"/>
  <path fill="#4C4947" d="M170.19 16.75h-10.23c0.16 2.28 1.6 3.41 4.31 3.41 1.72 0 3.24-0.41 4.55-1.22v3.49c-1.45 0.78-3.33 1.16-5.65 1.16 -2.53 0-4.49-0.7-5.89-2.1 -1.4-1.4-2.1-3.36-2.1-5.87 0-2.6 0.75-4.66 2.27-6.19 1.51-1.52 3.37-2.28 5.57-2.28 2.29 0 4.05 0.68 5.31 2.04 1.25 1.36 1.87 3.2 1.87 5.53V16.75zM165.7 13.78c0-2.24-0.91-3.37-2.72-3.37 -0.78 0-1.45 0.32-2.01 0.97 -0.57 0.64-0.91 1.44-1.03 2.4H165.7z"/>
  <path fill="#8E8C8A" d="M0.73 25.79l0.87 1.82c0.31 0.64 0.64 1.27 0.98 1.88 0.1-0.2 0.19-0.38 0.27-0.53 0.08-0.15 0.15-0.3 0.23-0.45l0.84-1.67c0.04-0.08 0.12-0.23 0.25-0.47 0.13-0.24 0.23-0.43 0.3-0.58h0.08l0.31 3c0.03 0.29 0.07 0.62 0.11 0.96 0.04 0.35 0.08 0.62 0.1 0.82 -0.12-0.01-0.21-0.02-0.28-0.02 -0.15 0-0.25 0.01-0.32 0.02l-0.2-2.51c-0.04-0.34-0.08-0.68-0.12-1.02l-0.9 1.78L2.9 29.53c-0.05 0.11-0.12 0.25-0.2 0.44 -0.08 0.18-0.16 0.37-0.24 0.55H2.39l-0.35-0.77c-0.1-0.23-0.22-0.49-0.36-0.78 -0.14-0.29-0.28-0.59-0.43-0.9 -0.15-0.31-0.32-0.65-0.49-1.02l-0.28 2.69 -0.03 0.69v0.15c-0.02 0-0.06 0-0.12 0 -0.05 0-0.1-0.01-0.13-0.01 -0.09 0-0.15 0.01-0.2 0.01v-0.06l0.22-1.42 0.31-2.5c0.01-0.09 0.03-0.2 0.04-0.34 0.01-0.13 0.03-0.29 0.05-0.46H0.73z"/>
  <path fill="#8E8C8A" d="M8.8 25.77l1.81 4.56 0.11 0.25c-0.15-0.01-0.25-0.02-0.32-0.02 -0.16 0-0.28 0.01-0.35 0.02l-0.06-0.2 -0.29-0.82 -0.31-0.82L8.62 28.71l-0.86 0.02c-0.31 0.86-0.52 1.48-0.63 1.84 -0.04-0.01-0.12-0.02-0.22-0.02 -0.05 0-0.13 0.01-0.24 0.02l1.99-4.8H8.8zM9.29 28.44l-0.71-1.77 -0.7 1.77h0.77H9.29z"/>
  <path fill="#8E8C8A" d="M12.5 29.67c0.13 0.23 0.28 0.41 0.44 0.52 0.16 0.12 0.35 0.18 0.59 0.18 0.26 0 0.47-0.1 0.64-0.29 0.17-0.19 0.25-0.43 0.25-0.7 0-0.38-0.21-0.67-0.64-0.87 -0.09-0.05-0.2-0.1-0.32-0.15 -0.12-0.05-0.23-0.1-0.32-0.15 -0.09-0.05-0.18-0.1-0.27-0.16 -0.3-0.21-0.45-0.53-0.45-0.95 0-0.42 0.13-0.74 0.4-0.97 0.27-0.23 0.61-0.34 1.01-0.34 0.39 0 0.69 0.11 0.92 0.32 -0.05 0.11-0.11 0.3-0.18 0.57h-0.06c-0.06-0.19-0.17-0.34-0.3-0.45 -0.14-0.11-0.3-0.17-0.48-0.17 -0.23 0-0.42 0.08-0.57 0.23s-0.23 0.36-0.23 0.59c0 0.26 0.09 0.48 0.27 0.64 0.07 0.07 0.16 0.12 0.25 0.17 0.1 0.05 0.18 0.09 0.25 0.12 0.06 0.03 0.12 0.05 0.17 0.08 0.05 0.02 0.09 0.04 0.12 0.05 0.05 0.02 0.11 0.05 0.16 0.07 0.05 0.02 0.1 0.05 0.13 0.07 0.21 0.13 0.34 0.23 0.4 0.3 0.18 0.24 0.27 0.49 0.27 0.73 0 0.32-0.07 0.59-0.21 0.83 -0.14 0.24-0.33 0.42-0.57 0.54 -0.24 0.12-0.51 0.19-0.8 0.19 -0.18 0-0.37-0.04-0.57-0.1 -0.21-0.07-0.36-0.17-0.46-0.28 0.06-0.16 0.1-0.36 0.12-0.6H12.5z"/>
  <path fill="#8E8C8A" d="M20.3 26.03c0.78 0.45 1.17 1.14 1.17 2.09 0 0.5-0.1 0.95-0.31 1.34 -0.21 0.39-0.49 0.69-0.86 0.9 -0.37 0.21-0.79 0.32-1.26 0.32 -0.5 0-0.93-0.11-1.3-0.34 -0.37-0.23-0.66-0.58-0.87-1.04 -0.04-0.11-0.09-0.29-0.14-0.55 -0.02-0.17-0.03-0.35-0.03-0.52 0-0.75 0.24-1.36 0.72-1.82 0.46-0.44 1-0.67 1.63-0.67C19.54 25.74 19.95 25.83 20.3 26.03zM20.44 26.65c-0.16-0.21-0.35-0.38-0.59-0.49 -0.23-0.12-0.48-0.17-0.74-0.17 -0.4 0-0.76 0.12-1.06 0.37 -0.26 0.21-0.45 0.48-0.56 0.84 -0.11 0.35-0.17 0.73-0.17 1.14 0 0.64 0.15 1.14 0.46 1.52 0.33 0.42 0.76 0.63 1.28 0.63 0.29 0 0.56-0.07 0.8-0.22 0.25-0.15 0.45-0.34 0.6-0.59s0.27-0.53 0.32-0.85c0.04-0.2 0.06-0.41 0.06-0.62 0-0.32-0.03-0.6-0.08-0.84S20.59 26.87 20.44 26.65z"/>
  <path fill="#8E8C8A" d="M23.61 28.07v-2.31h0.11l3.14 3.63 0.04 0.04c0.01-0.16 0.02-0.42 0.02-0.75v-2.21l-0.02-0.55 -0.01-0.05c0.12 0.01 0.21 0.02 0.28 0.02 0.03 0 0.08-0.01 0.16-0.02 0 0.02-0.01 0.04-0.01 0.08 0 0.04-0.01 0.06-0.01 0.08l-0.03 0.68 -0.06 1.64 -0.02 1.54 0.02 0.78h-0.09c-0.16-0.2-0.29-0.36-0.39-0.49l-1.04-1.25 -1.77-2.05 -0.01 0.65v1.02 0.55l0.01 0.82 0.04 0.66c-0.05-0.01-0.12-0.02-0.22-0.02 -0.1 0-0.17 0.01-0.22 0.02 0.03-0.4 0.04-0.71 0.05-0.9L23.61 28.07z"/>
  <path fill="#8E8C8A" d="M30.17 25.88l0.85-0.02c0.31 0 0.57 0.03 0.8 0.1 0.22 0.07 0.38 0.21 0.49 0.44 0.09 0.16 0.13 0.34 0.13 0.53 0 0.38-0.12 0.67-0.38 0.89 -0.25 0.22-0.56 0.36-0.93 0.43l1.31 1.8 0.31 0.39 0.11 0.15c-0.05 0-0.11-0.01-0.19-0.02 -0.08-0.01-0.14-0.01-0.18-0.01 -0.04 0-0.1 0-0.18 0.01 -0.08 0.01-0.14 0.01-0.18 0.02 -0.02-0.04-0.08-0.12-0.16-0.25 -0.08-0.13-0.16-0.24-0.22-0.33l-0.76-1.06 -0.51-0.64h-0.24v0.55 0.3l0.02 1.43c-0.12-0.01-0.22-0.02-0.29-0.02 -0.07 0-0.17 0.01-0.31 0.02 0-0.12 0-0.25 0.01-0.39s0.01-0.28 0.02-0.41l0.03-2.41 -0.04-1.33v-0.17L30.17 25.88zM30.22 28.03c0.03 0 0.08 0 0.15 0.01 0.07 0 0.12 0.01 0.15 0.01 0.18 0 0.36-0.01 0.53-0.04 0.25-0.06 0.44-0.17 0.59-0.34 0.15-0.17 0.22-0.39 0.22-0.65 0-0.26-0.07-0.46-0.21-0.61 -0.11-0.13-0.28-0.22-0.49-0.26 -0.08-0.01-0.21-0.01-0.4-0.01 -0.24 0-0.41 0-0.53 0.01L30.22 28.03z"/>
  <path fill="#8E8C8A" d="M37.46 25.87c0.06 0 0.16 0.01 0.29 0.02 0.09 0 0.16-0.01 0.21-0.02 -0.02 0.03-0.09 0.14-0.2 0.32 -0.11 0.18-0.2 0.31-0.24 0.38l-0.7 1.22c-0.14 0.23-0.27 0.49-0.39 0.76l0.02 1.4 0.02 0.63c-0.15-0.01-0.26-0.02-0.34-0.02 -0.07 0-0.16 0.01-0.28 0.02 0-0.06 0-0.11 0.01-0.14l0.03-0.68 0.01-0.69v-0.43l-1.55-2.77c0.16 0.01 0.28 0.02 0.35 0.02 0.16 0 0.28-0.01 0.36-0.02 0.31 0.63 0.51 1.04 0.62 1.25l0.52 0.96c0.04 0.07 0.06 0.11 0.07 0.12 0.05-0.04 0.12-0.14 0.19-0.3 0.25-0.45 0.54-1.02 0.86-1.69L37.46 25.87z"/>
  <path fill="#8E8C8A" d="M43.74 25.88l0.85-0.02c0.31 0 0.57 0.03 0.8 0.1 0.22 0.07 0.38 0.21 0.49 0.44 0.09 0.16 0.13 0.34 0.13 0.53 0 0.38-0.12 0.67-0.38 0.89 -0.25 0.22-0.56 0.36-0.93 0.43l1.31 1.8 0.31 0.39 0.11 0.15c-0.05 0-0.11-0.01-0.19-0.02 -0.08-0.01-0.14-0.01-0.19-0.01 -0.04 0-0.1 0-0.17 0.01 -0.08 0.01-0.14 0.01-0.18 0.02 -0.03-0.04-0.08-0.12-0.16-0.25 -0.08-0.13-0.16-0.24-0.22-0.33l-0.76-1.06 -0.51-0.64h-0.24v0.55 0.3l0.02 1.43c-0.12-0.01-0.22-0.02-0.29-0.02 -0.07 0-0.18 0.01-0.31 0.02 0-0.12 0-0.25 0.01-0.39 0.01-0.14 0.02-0.28 0.02-0.41l0.03-2.41 -0.04-1.33v-0.17L43.74 25.88zM43.78 28.03c0.03 0 0.08 0 0.15 0.01s0.12 0.01 0.15 0.01c0.18 0 0.36-0.01 0.53-0.04 0.25-0.06 0.44-0.17 0.59-0.34 0.15-0.17 0.23-0.39 0.23-0.65 0-0.26-0.07-0.46-0.21-0.61 -0.11-0.13-0.28-0.22-0.49-0.26 -0.08-0.01-0.21-0.01-0.4-0.01 -0.24 0-0.41 0-0.53 0.01L43.78 28.03z"/>
  <path fill="#8E8C8A" d="M49.9 25.88c0.15 0 0.37-0.01 0.66-0.02 0 0.02 0 0.06-0.01 0.1 -0.01 0.04-0.01 0.08-0.01 0.11 0 0.09 0.01 0.16 0.02 0.21 -0.06 0-0.15-0.01-0.26-0.02 -0.11-0.01-0.21-0.02-0.31-0.02l-0.64-0.02h-0.47l-0.03 1.03v0.3 0.4h0.65l0.34-0.02c0.07 0 0.16-0.01 0.29-0.02 0.13-0.01 0.22-0.01 0.28-0.02 -0.02 0.13-0.03 0.2-0.03 0.21 0 0 0.01 0.07 0.03 0.21 -0.24-0.03-0.43-0.04-0.57-0.04l-0.35-0.01h-0.28 -0.36v0.55 0.86c0 0.27 0 0.47 0.01 0.6 0.38 0 0.77-0.01 1.15-0.03 0.18 0 0.38-0.02 0.58-0.05 0 0.18 0 0.32 0.01 0.41l-0.44-0.01c-0.34-0.01-0.6-0.02-0.79-0.02 -0.06 0-0.15 0-0.28 0 -0.12 0-0.22 0.01-0.28 0.01 -0.05 0-0.14 0-0.26 0.01 -0.12 0-0.21 0-0.27 0l0.04-0.86 0.01-2.36 -0.01-0.6c0-0.08-0.01-0.38-0.03-0.88l0.69 0.02H49.9z"/>
  <path fill="#8E8C8A" d="M53.27 28.94v0.3l0.02 1.2v0.15c-0.12-0.01-0.22-0.02-0.29-0.02 -0.04 0-0.09 0-0.16 0.01 -0.07 0-0.12 0-0.16 0 0.01-0.04 0.01-0.09 0.01-0.17l0.06-1.33 -0.03-2.41 -0.03-0.79c0.09 0.01 0.22 0.01 0.39 0.01l0.78-0.01c0.29 0 0.53 0.01 0.73 0.04s0.38 0.1 0.54 0.21c0.17 0.11 0.28 0.29 0.34 0.54 0.03 0.1 0.04 0.22 0.04 0.35 0 0.29-0.06 0.54-0.19 0.75 -0.12 0.19-0.28 0.34-0.48 0.44 -0.18 0.1-0.41 0.17-0.7 0.23 -0.09 0.01-0.21 0.02-0.39 0.02 -0.05 0-0.13 0-0.24 0 -0.1 0-0.19-0.01-0.24-0.01V28.94zM53.27 26.71v1.45c0.06 0.02 0.16 0.02 0.31 0.02 0.08 0 0.19-0.01 0.33-0.02 0.35-0.04 0.61-0.16 0.77-0.36 0.07-0.08 0.13-0.19 0.17-0.34 0.04-0.15 0.07-0.29 0.07-0.42 0-0.26-0.07-0.47-0.21-0.65 -0.1-0.13-0.27-0.21-0.51-0.24 -0.12-0.02-0.24-0.03-0.36-0.03 -0.15 0-0.33 0.01-0.56 0.02v0.16L53.27 26.71z"/>
  <path fill="#8E8C8A" d="M59.08 25.77l1.81 4.56 0.11 0.25c-0.15-0.01-0.25-0.02-0.32-0.02 -0.16 0-0.28 0.01-0.35 0.02l-0.06-0.2 -0.29-0.82 -0.31-0.82 -0.77-0.02 -0.86 0.02c-0.31 0.86-0.52 1.48-0.63 1.84 -0.04-0.01-0.12-0.02-0.22-0.02 -0.05 0-0.13 0.01-0.24 0.02l1.99-4.8H59.08zM59.57 28.44l-0.71-1.77 -0.7 1.77h0.77H59.57z"/>
  <path fill="#8E8C8A" d="M63.46 27.4c-0.01 0.58-0.02 1.01-0.02 1.29 0 0.05 0 0.12 0 0.21 0 0.1 0 0.16 0 0.21l0.06 1.46c-0.13-0.01-0.24-0.02-0.31-0.02 -0.07 0-0.18 0.01-0.33 0.02l0.06-1.48c0.01-0.07 0.01-0.18 0.01-0.33 0-0.15 0-0.26 0.01-0.33V27.85v-0.51l-0.03-1.46c0.18 0.02 0.28 0.03 0.29 0.03 0.15 0 0.25-0.01 0.31-0.04L63.46 27.4z"/>
  <path fill="#8E8C8A" d="M66.37 25.88l0.85-0.02c0.31 0 0.57 0.03 0.8 0.1 0.22 0.07 0.38 0.21 0.49 0.44 0.09 0.16 0.13 0.34 0.13 0.53 0 0.38-0.12 0.67-0.37 0.89 -0.25 0.22-0.56 0.36-0.93 0.43l1.31 1.8 0.31 0.39 0.11 0.15c-0.05 0-0.11-0.01-0.19-0.02 -0.08-0.01-0.14-0.01-0.18-0.01 -0.04 0-0.1 0-0.17 0.01 -0.08 0.01-0.14 0.01-0.18 0.02 -0.03-0.04-0.08-0.12-0.17-0.25 -0.08-0.13-0.16-0.24-0.22-0.33l-0.76-1.06 -0.51-0.64h-0.24v0.55 0.3l0.02 1.43c-0.12-0.01-0.22-0.02-0.29-0.02 -0.07 0-0.18 0.01-0.31 0.02 0-0.12 0-0.25 0.01-0.39s0.01-0.28 0.02-0.41l0.03-2.41 -0.04-1.33v-0.17L66.37 25.88zM66.42 28.03c0.03 0 0.08 0 0.15 0.01 0.07 0 0.12 0.01 0.15 0.01 0.18 0 0.36-0.01 0.53-0.04 0.25-0.06 0.45-0.17 0.59-0.34s0.22-0.39 0.22-0.65c0-0.26-0.07-0.46-0.21-0.61 -0.11-0.13-0.28-0.22-0.49-0.26 -0.08-0.01-0.21-0.01-0.4-0.01 -0.24 0-0.41 0-0.53 0.01L66.42 28.03z"/>
  <path fill="#8E8C8A" d="M70.84 29.67c0.13 0.23 0.28 0.41 0.44 0.52 0.16 0.12 0.35 0.18 0.59 0.18 0.26 0 0.47-0.1 0.64-0.29 0.17-0.19 0.25-0.43 0.25-0.7 0-0.38-0.21-0.67-0.64-0.87 -0.09-0.05-0.2-0.1-0.32-0.15 -0.12-0.05-0.23-0.1-0.32-0.15 -0.09-0.05-0.18-0.1-0.27-0.16 -0.3-0.21-0.45-0.53-0.45-0.95 0-0.42 0.13-0.74 0.4-0.97 0.27-0.23 0.61-0.34 1.01-0.34 0.38 0 0.69 0.11 0.92 0.32 -0.05 0.11-0.11 0.3-0.18 0.57h-0.06c-0.06-0.19-0.17-0.34-0.3-0.45 -0.14-0.11-0.3-0.17-0.48-0.17 -0.23 0-0.42 0.08-0.57 0.23s-0.23 0.36-0.23 0.59c0 0.26 0.09 0.48 0.27 0.64 0.07 0.07 0.16 0.12 0.25 0.17 0.09 0.05 0.18 0.09 0.25 0.12 0.06 0.03 0.12 0.05 0.17 0.08 0.05 0.02 0.09 0.04 0.12 0.05 0.06 0.02 0.11 0.05 0.16 0.07 0.05 0.02 0.1 0.05 0.13 0.07 0.21 0.13 0.34 0.23 0.4 0.3 0.18 0.24 0.27 0.49 0.27 0.73 0 0.32-0.07 0.59-0.21 0.83 -0.14 0.24-0.33 0.42-0.57 0.54s-0.51 0.19-0.8 0.19c-0.18 0-0.37-0.04-0.57-0.1 -0.21-0.07-0.36-0.17-0.46-0.28 0.06-0.16 0.1-0.36 0.12-0.6H70.84z"/>
  <path fill="#8E8C8A" d="M79.75 28.04c-0.15-0.25-0.26-0.44-0.33-0.59 -0.07-0.14-0.1-0.31-0.1-0.49 0-0.31 0.11-0.56 0.34-0.78 0.16-0.16 0.38-0.23 0.65-0.23 0.23 0 0.43 0.06 0.6 0.19 0.16 0.14 0.24 0.31 0.24 0.53 0 0.26-0.08 0.48-0.23 0.67 -0.16 0.19-0.37 0.38-0.63 0.58 0.42 0.59 0.68 0.94 0.79 1.07l0.34 0.42 0.03-0.04c0.05-0.06 0.11-0.17 0.19-0.31 0.12-0.19 0.23-0.37 0.32-0.55 0.05-0.09 0.1-0.2 0.16-0.32 0.03-0.05 0.05-0.09 0.06-0.13 0 0.02 0.01 0.03 0.02 0.04 0.01 0.02 0.03 0.05 0.05 0.08 0.03 0.03 0.04 0.05 0.04 0.05 0.01 0.01 0.02 0.02 0.06 0.04 0.03 0.03 0.06 0.05 0.07 0.06 -0.3 0.5-0.59 0.91-0.85 1.26l0.8 0.99c-0.18-0.01-0.3-0.02-0.39-0.02 -0.09 0-0.21 0.01-0.37 0.02 -0.17-0.27-0.3-0.46-0.4-0.58 -0.37 0.45-0.83 0.67-1.37 0.67 -0.36 0-0.66-0.1-0.89-0.31 -0.22-0.24-0.33-0.52-0.33-0.84 0-0.33 0.13-0.63 0.39-0.93 0.16-0.17 0.4-0.34 0.73-0.53L79.75 28.04zM79.81 28.25c-0.47 0.31-0.7 0.68-0.7 1.11 0 0.28 0.1 0.53 0.31 0.75 0.17 0.18 0.38 0.27 0.63 0.27 0.36 0 0.68-0.15 0.97-0.45 0.01-0.01 0.03-0.04 0.04-0.06 -0.48-0.62-0.88-1.17-1.19-1.65 -0.01 0.01-0.03 0.02-0.04 0.02C79.82 28.23 79.81 28.24 79.81 28.25zM80.81 26.72c0-0.17-0.05-0.31-0.14-0.42 -0.09-0.11-0.22-0.17-0.37-0.17 -0.17 0-0.3 0.08-0.41 0.23 -0.09 0.1-0.13 0.24-0.13 0.42 0 0.27 0.13 0.6 0.4 0.99C80.6 27.44 80.81 27.09 80.81 26.72z"/>
  <path fill="#8E8C8A" d="M88.33 25.79l0.87 1.82c0.31 0.64 0.64 1.27 0.98 1.88 0.1-0.2 0.19-0.38 0.27-0.53 0.08-0.15 0.15-0.3 0.23-0.45l0.84-1.67c0.04-0.08 0.12-0.23 0.25-0.47 0.13-0.24 0.23-0.43 0.3-0.58h0.08l0.31 3c0.03 0.29 0.07 0.62 0.11 0.96 0.04 0.35 0.08 0.62 0.1 0.82 -0.12-0.01-0.21-0.02-0.28-0.02 -0.15 0-0.25 0.01-0.32 0.02l-0.2-2.51c-0.04-0.34-0.08-0.68-0.12-1.02l-0.9 1.78 -0.34 0.71c-0.05 0.11-0.12 0.25-0.2 0.44 -0.08 0.18-0.16 0.37-0.24 0.55H89.99l-0.35-0.77c-0.1-0.23-0.22-0.49-0.36-0.78S89 28.37 88.85 28.06c-0.15-0.31-0.32-0.65-0.49-1.02l-0.28 2.69 -0.03 0.69v0.15c-0.02 0-0.06 0-0.12 0 -0.05 0-0.1-0.01-0.13-0.01 -0.09 0-0.15 0.01-0.2 0.01v-0.06l0.22-1.42 0.31-2.5c0.01-0.09 0.03-0.2 0.04-0.34 0.01-0.13 0.03-0.29 0.05-0.46H88.33z"/>
  <path fill="#8E8C8A" d="M96.4 25.77l1.81 4.56 0.11 0.25c-0.15-0.01-0.25-0.02-0.32-0.02 -0.16 0-0.28 0.01-0.35 0.02l-0.06-0.2 -0.29-0.82 -0.31-0.82 -0.77-0.02 -0.86 0.02c-0.31 0.86-0.52 1.48-0.63 1.84 -0.04-0.01-0.12-0.02-0.22-0.02 -0.05 0-0.13 0.01-0.24 0.02l1.99-4.8H96.4zM96.88 28.44l-0.71-1.77 -0.7 1.77h0.77H96.88z"/>
  <path fill="#8E8C8A" d="M100.22 26.03l-0.02-0.16c0.02 0.01 0.05 0.01 0.08 0.01 0.08 0.01 0.14 0.02 0.19 0.02 0.06 0 0.11-0.01 0.17-0.01 0.06 0 0.11-0.01 0.16-0.02 -0.01 0.04-0.01 0.11-0.01 0.19l-0.03 1.83c0 0.02 0 0.04 0.01 0.06 0 0.03 0 0.05 0 0.06 0 0.03 0.02 0.04 0.05 0.04 0.02-0.02 0.05-0.04 0.09-0.07 0.04-0.03 0.07-0.06 0.09-0.08 0.13-0.12 0.21-0.21 0.26-0.27l0.32-0.33 1.24-1.43c0.05 0.01 0.13 0.01 0.23 0.01 0.03 0 0.08 0 0.14 0 0.06 0 0.11 0 0.14 0l-1.44 1.52 -0.54 0.59c0.11 0.13 0.29 0.36 0.57 0.69 0.27 0.33 0.47 0.57 0.59 0.71 0.12 0.15 0.25 0.31 0.39 0.49l0.52 0.66v0.04c-0.04 0-0.09-0.01-0.17-0.02 -0.07-0.01-0.13-0.01-0.17-0.01 -0.04 0-0.1 0-0.17 0.01 -0.08 0.01-0.14 0.01-0.18 0.02 -0.26-0.35-0.41-0.56-0.45-0.6l-0.85-1.11 -0.54-0.66c0 0-0.01 0-0.04-0.01 -0.02 0-0.04 0-0.07 0 -0.01 0.01-0.01 0.05-0.01 0.1 0 0.08 0 0.2 0.01 0.36 0 0.16 0 0.28 0 0.36v0.71l0.02 0.68 0.01 0.17c-0.1-0.01-0.26-0.01-0.48-0.01l-0.12 0.01c0-0.08 0-0.14 0.01-0.18l0.04-1.22c0-0.1 0-0.26 0.01-0.48 0-0.21 0.01-0.37 0.01-0.48 0-0.11 0-0.26 0-0.46 0-0.2 0-0.35 0-0.45l-0.02-0.65L100.22 26.03z"/>
  <path fill="#8E8C8A" d="M106.89 25.88c0.15 0 0.37-0.01 0.66-0.02 0 0.02 0 0.06-0.01 0.1 -0.01 0.04-0.01 0.08-0.01 0.11 0 0.09 0.01 0.16 0.02 0.21 -0.06 0-0.15-0.01-0.26-0.02 -0.11-0.01-0.21-0.02-0.31-0.02l-0.64-0.02h-0.47l-0.03 1.03v0.3 0.4h0.65l0.34-0.02c0.07 0 0.16-0.01 0.29-0.02 0.13-0.01 0.22-0.01 0.28-0.02 -0.02 0.13-0.03 0.2-0.03 0.21 0 0 0.01 0.07 0.03 0.21 -0.24-0.03-0.43-0.04-0.57-0.04l-0.35-0.01h-0.28 -0.36v0.55 0.86c0 0.27 0 0.47 0.01 0.6 0.38 0 0.77-0.01 1.15-0.03 0.18 0 0.38-0.02 0.58-0.05 0 0.18 0 0.32 0.01 0.41l-0.44-0.01c-0.34-0.01-0.6-0.02-0.79-0.02 -0.06 0-0.15 0-0.28 0 -0.12 0-0.22 0.01-0.28 0.01 -0.05 0-0.14 0-0.26 0.01 -0.12 0-0.21 0-0.27 0l0.04-0.86 0.01-2.36 -0.01-0.6c0-0.08-0.01-0.38-0.03-0.88l0.69 0.02H106.89z"/>
  <path fill="#8E8C8A" d="M112.99 26.03c0.78 0.45 1.17 1.14 1.17 2.09 0 0.5-0.1 0.95-0.31 1.34 -0.21 0.39-0.49 0.69-0.86 0.9 -0.37 0.21-0.79 0.32-1.26 0.32 -0.5 0-0.93-0.11-1.3-0.34 -0.37-0.23-0.66-0.58-0.87-1.04 -0.04-0.11-0.09-0.29-0.14-0.55 -0.02-0.17-0.03-0.35-0.03-0.52 0-0.75 0.24-1.36 0.72-1.82 0.46-0.44 1-0.67 1.63-0.67C112.23 25.74 112.65 25.83 112.99 26.03zM113.13 26.65c-0.16-0.21-0.35-0.38-0.59-0.49 -0.23-0.12-0.48-0.17-0.74-0.17 -0.41 0-0.76 0.12-1.07 0.37 -0.26 0.21-0.45 0.48-0.56 0.84 -0.11 0.35-0.17 0.73-0.17 1.14 0 0.64 0.15 1.14 0.46 1.52 0.33 0.42 0.76 0.63 1.28 0.63 0.29 0 0.56-0.07 0.8-0.22 0.25-0.15 0.45-0.34 0.6-0.59 0.16-0.25 0.26-0.53 0.32-0.85 0.04-0.2 0.06-0.41 0.06-0.62 0-0.32-0.03-0.6-0.08-0.84C113.39 27.1 113.28 26.87 113.13 26.65z"/>
  <path fill="#8E8C8A" d="M117 29.05l-1.14-2.99 -0.1-0.19c0.16 0.01 0.28 0.02 0.36 0.02 0.07 0 0.17-0.01 0.3-0.02 0.03 0.08 0.06 0.17 0.1 0.28 0.04 0.11 0.08 0.25 0.13 0.4l0.43 1.21 0.79 2.09h0.04c0.04-0.09 0.09-0.23 0.17-0.41 0.08-0.18 0.13-0.32 0.16-0.42l0.68-1.87 0.38-1.15 0.04-0.12c0.06 0 0.15 0.01 0.27 0.02 0.09 0 0.15-0.01 0.19-0.02 -0.01 0.03-0.02 0.06-0.04 0.09 -0.02 0.04-0.03 0.06-0.03 0.08l-1.44 3.65 -0.31 0.88c-0.05-0.01-0.12-0.02-0.21-0.02 -0.09 0-0.16 0.01-0.21 0.02L117 29.05z"/>
  <path fill="#8E8C8A" d="M123.23 25.88c0.15 0 0.37-0.01 0.66-0.02 0 0.02 0 0.06-0.01 0.1 -0.01 0.04-0.01 0.08-0.01 0.11 0 0.09 0.01 0.16 0.02 0.21 -0.06 0-0.15-0.01-0.26-0.02 -0.11-0.01-0.21-0.02-0.31-0.02l-0.64-0.02h-0.47l-0.03 1.03v0.3 0.4h0.65l0.34-0.02c0.07 0 0.16-0.01 0.29-0.02 0.13-0.01 0.22-0.01 0.28-0.02 -0.02 0.13-0.03 0.2-0.03 0.21 0 0 0.01 0.07 0.03 0.21 -0.24-0.03-0.43-0.04-0.57-0.04l-0.35-0.01h-0.28 -0.36v0.55 0.86c0 0.27 0 0.47 0.01 0.6 0.39 0 0.77-0.01 1.15-0.03 0.18 0 0.38-0.02 0.58-0.05 0 0.18 0 0.32 0.01 0.41l-0.44-0.01c-0.34-0.01-0.6-0.02-0.78-0.02 -0.06 0-0.15 0-0.28 0 -0.12 0-0.22 0.01-0.28 0.01 -0.05 0-0.14 0-0.26 0.01 -0.12 0-0.21 0-0.27 0l0.04-0.86 0.01-2.36 -0.01-0.6c0-0.08-0.01-0.38-0.03-0.88l0.69 0.02H123.23z"/>
  <path fill="#8E8C8A" d="M126.54 25.88l0.85-0.02c0.31 0 0.57 0.03 0.8 0.1 0.22 0.07 0.38 0.21 0.49 0.44 0.09 0.16 0.13 0.34 0.13 0.53 0 0.38-0.12 0.67-0.37 0.89 -0.25 0.22-0.56 0.36-0.93 0.43l1.31 1.8 0.31 0.39 0.11 0.15c-0.05 0-0.11-0.01-0.19-0.02 -0.08-0.01-0.14-0.01-0.18-0.01 -0.04 0-0.1 0-0.17 0.01 -0.08 0.01-0.14 0.01-0.18 0.02 -0.03-0.04-0.08-0.12-0.16-0.25 -0.08-0.13-0.16-0.24-0.22-0.33l-0.76-1.06 -0.51-0.64h-0.24v0.55 0.3l0.02 1.43c-0.12-0.01-0.22-0.02-0.29-0.02 -0.07 0-0.18 0.01-0.31 0.02 0-0.12 0-0.25 0.01-0.39 0.01-0.14 0.01-0.28 0.02-0.41l0.03-2.41 -0.04-1.33v-0.17L126.54 25.88zM126.59 28.03c0.03 0 0.08 0 0.15 0.01 0.07 0 0.12 0.01 0.15 0.01 0.18 0 0.36-0.01 0.53-0.04 0.25-0.06 0.44-0.17 0.59-0.34 0.15-0.17 0.22-0.39 0.22-0.65 0-0.26-0.07-0.46-0.21-0.61 -0.11-0.13-0.28-0.22-0.49-0.26 -0.08-0.01-0.21-0.01-0.4-0.01 -0.24 0-0.41 0-0.53 0.01L126.59 28.03z"/>
  <path fill="#8E8C8A" d="M131 29.67c0.13 0.23 0.28 0.41 0.44 0.52 0.16 0.12 0.35 0.18 0.59 0.18 0.26 0 0.47-0.1 0.64-0.29 0.17-0.19 0.25-0.43 0.25-0.7 0-0.38-0.21-0.67-0.64-0.87 -0.09-0.05-0.2-0.1-0.32-0.15 -0.12-0.05-0.23-0.1-0.32-0.15 -0.09-0.05-0.18-0.1-0.26-0.16 -0.3-0.21-0.45-0.53-0.45-0.95 0-0.42 0.13-0.74 0.4-0.97 0.27-0.23 0.61-0.34 1.01-0.34 0.39 0 0.69 0.11 0.92 0.32 -0.05 0.11-0.11 0.3-0.18 0.57h-0.06c-0.06-0.19-0.17-0.34-0.3-0.45 -0.14-0.11-0.3-0.17-0.48-0.17 -0.23 0-0.42 0.08-0.57 0.23 -0.15 0.16-0.23 0.36-0.23 0.59 0 0.26 0.09 0.48 0.27 0.64 0.07 0.07 0.16 0.12 0.25 0.17 0.1 0.05 0.18 0.09 0.25 0.12 0.06 0.03 0.12 0.05 0.17 0.08 0.05 0.02 0.09 0.04 0.12 0.05 0.06 0.02 0.11 0.05 0.16 0.07 0.05 0.02 0.1 0.05 0.13 0.07 0.21 0.13 0.34 0.23 0.4 0.3 0.18 0.24 0.27 0.49 0.27 0.73 0 0.32-0.07 0.59-0.21 0.83 -0.14 0.24-0.33 0.42-0.57 0.54s-0.51 0.19-0.8 0.19c-0.18 0-0.37-0.04-0.57-0.1 -0.21-0.07-0.36-0.17-0.46-0.28 0.06-0.16 0.1-0.36 0.12-0.6H131z"/>
  <text transform="matrix(1 0 0 1 168.8564 5.3184)" fill="#8B8987" font-family="'ArialMT'" font-size="4">
    TM
  </text>
</svg>
