<svg xmlns="http://www.w3.org/2000/svg" xmlns:xlink="http://www.w3.org/1999/xlink" viewBox="0 0 90.686 60.274"><defs><path id="a" d="M-5.218-20.573h100v100h-100z"/></defs><clipPath id="b"><use xlink:href="#a" overflow="visible"/></clipPath><path clip-path="url(#b)" fill-rule="evenodd" clip-rule="evenodd" fill="#FFF" d="M40.282 19.927c0-11-9-20-20-20s-20 9-20 20c0 22.1 17.9 40 40 40 0 0-13.1-4.9-19.9-20 11 0 19.9-9 19.9-20zm30.1 20c11 0 19.9-9 19.9-20s-9-20-20-20-20 9-20 20c0 22.1 17.9 40 40 40 0 0-13.1-4.9-19.9-20z"/></svg>
